<?xml version="1.0" encoding="UTF-8" standalone="no"?>
<!DOCTYPE svg PUBLIC "-//W3C//DTD SVG 1.1//EN" "http://www.w3.org/Graphics/SVG/1.1/DTD/svg11.dtd">
<svg xmlns="http://www.w3.org/2000/svg" xmlns:xlink="http://www.w3.org/1999/xlink" version="1.1" width="114.412pt" height="125.718pt" viewBox="0 0 114.412 125.718">
<g enable-background="new">
<path transform="matrix(1,0,0,-1,57.206,71.380008)" d="M 4.6963 0 C 4.6963 2.59372 2.59372 4.6963 0 4.6963 C -2.59372 4.6963 -4.6963 2.59372 -4.6963 0 C -4.6963 -2.59372 -2.59372 -4.6963 0 -4.6963 C 2.59372 -4.6963 4.6963 -2.59372 4.6963 0 Z M 0 0 " fill="#b3c2ff"/>
<path transform="matrix(1,0,0,-1,57.206,71.380008)" stroke-width=".3985" stroke-linecap="butt" stroke-miterlimit="10" stroke-linejoin="miter" fill="none" stroke="#335cff" d="M 4.6963 0 C 4.6963 2.59372 2.59372 4.6963 0 4.6963 C -2.59372 4.6963 -4.6963 2.59372 -4.6963 0 C -4.6963 -2.59372 -2.59372 -4.6963 0 -4.6963 C 2.59372 -4.6963 4.6963 -2.59372 4.6963 0 Z M 0 0 "/>
<path transform="matrix(1,0,0,-1,57.206,71.380008)" d="M -30.57387 -49.44359 C -30.57387 -46.84985 -32.67645 -44.74727 -35.27017 -44.74727 C -37.8639 -44.74727 -39.96649 -46.84985 -39.96649 -49.44359 C -39.96649 -52.03732 -37.8639 -54.13991 -35.27017 -54.13991 C -32.67645 -54.13991 -30.57387 -52.03732 -30.57387 -49.44359 Z M -35.27017 -49.44359 " fill="#b3e0c2"/>
<path transform="matrix(1,0,0,-1,57.206,71.380008)" stroke-width=".3985" stroke-linecap="butt" stroke-miterlimit="10" stroke-linejoin="miter" fill="none" stroke="#33ad5c" d="M -30.57387 -49.44359 C -30.57387 -46.84985 -32.67645 -44.74727 -35.27017 -44.74727 C -37.8639 -44.74727 -39.96649 -46.84985 -39.96649 -49.44359 C -39.96649 -52.03732 -37.8639 -54.13991 -35.27017 -54.13991 C -32.67645 -54.13991 -30.57387 -52.03732 -30.57387 -49.44359 Z M -35.27017 -49.44359 "/>
<path transform="matrix(1,0,0,-1,57.206,71.380008)" d="M 39.96649 -49.44359 C 39.96649 -46.84985 37.8639 -44.74727 35.27017 -44.74727 C 32.67645 -44.74727 30.57387 -46.84985 30.57387 -49.44359 C 30.57387 -52.03732 32.67645 -54.13991 35.27017 -54.13991 C 37.8639 -54.13991 39.96649 -52.03732 39.96649 -49.44359 Z M 35.27017 -49.44359 " fill="#f0b3b3"/>
<path transform="matrix(1,0,0,-1,57.206,71.380008)" stroke-width=".3985" stroke-linecap="butt" stroke-miterlimit="10" stroke-linejoin="miter" fill="none" stroke="#d63333" d="M 39.96649 -49.44359 C 39.96649 -46.84985 37.8639 -44.74727 35.27017 -44.74727 C 32.67645 -44.74727 30.57387 -46.84985 30.57387 -49.44359 C 30.57387 -52.03732 32.67645 -54.13991 35.27017 -54.13991 C 37.8639 -54.13991 39.96649 -52.03732 39.96649 -49.44359 Z M 35.27017 -49.44359 "/>
<path transform="matrix(1,0,0,-1,57.206,71.380008)" d="M 57.00768 28.3468 C 57.00768 30.94054 54.90509 33.04312 52.31136 33.04312 C 49.71762 33.04312 47.61504 30.94054 47.61504 28.3468 C 47.61504 25.75307 49.71762 23.65048 52.31136 23.65048 C 54.90509 23.65048 57.00768 25.75307 57.00768 28.3468 Z M 52.31136 28.3468 " fill="#ffd9b3"/>
<path transform="matrix(1,0,0,-1,57.206,71.380008)" stroke-width=".3985" stroke-linecap="butt" stroke-miterlimit="10" stroke-linejoin="miter" fill="none" stroke="#ff9933" d="M 57.00768 28.3468 C 57.00768 30.94054 54.90509 33.04312 52.31136 33.04312 C 49.71762 33.04312 47.61504 30.94054 47.61504 28.3468 C 47.61504 25.75307 49.71762 23.65048 52.31136 23.65048 C 54.90509 23.65048 57.00768 25.75307 57.00768 28.3468 Z M 52.31136 28.3468 "/>
<path transform="matrix(1,0,0,-1,57.206,71.380008)" d="M 4.6963 66.48477 C 4.6963 69.07849 2.59372 71.18108 0 71.18108 C -2.59372 71.18108 -4.6963 69.07849 -4.6963 66.48477 C -4.6963 63.89104 -2.59372 61.78845 0 61.78845 C 2.59372 61.78845 4.6963 63.89104 4.6963 66.48477 Z M 0 66.48477 " fill="#d1b3f0"/>
<path transform="matrix(1,0,0,-1,57.206,71.380008)" stroke-width=".3985" stroke-linecap="butt" stroke-miterlimit="10" stroke-linejoin="miter" fill="none" stroke="#8533d6" d="M 4.6963 66.48477 C 4.6963 69.07849 2.59372 71.18108 0 71.18108 C -2.59372 71.18108 -4.6963 69.07849 -4.6963 66.48477 C -4.6963 63.89104 -2.59372 61.78845 0 61.78845 C 2.59372 61.78845 4.6963 63.89104 4.6963 66.48477 Z M 0 66.48477 "/>
<path transform="matrix(1,0,0,-1,57.206,71.380008)" d="M -47.61504 28.3468 C -47.61504 30.94054 -49.71762 33.04312 -52.31136 33.04312 C -54.90509 33.04312 -57.00768 30.94054 -57.00768 28.3468 C -57.00768 25.75307 -54.90509 23.65048 -52.31136 23.65048 C -49.71762 23.65048 -47.61504 25.75307 -47.61504 28.3468 Z M -52.31136 28.3468 " fill="#b3e0ff"/>
<path transform="matrix(1,0,0,-1,57.206,71.380008)" stroke-width=".3985" stroke-linecap="butt" stroke-miterlimit="10" stroke-linejoin="miter" fill="none" stroke="#33adff" d="M -47.61504 28.3468 C -47.61504 30.94054 -49.71762 33.04312 -52.31136 33.04312 C -54.90509 33.04312 -57.00768 30.94054 -57.00768 28.3468 C -57.00768 25.75307 -54.90509 23.65048 -52.31136 23.65048 C -49.71762 23.65048 -47.61504 25.75307 -47.61504 28.3468 Z M -52.31136 28.3468 "/>
<path transform="matrix(1,0,0,-1,57.206,71.380008)" stroke-width=".79701" stroke-linecap="butt" stroke-miterlimit="10" stroke-linejoin="miter" fill="none" stroke="#000000" d=""/>
<path transform="matrix(1,0,0,-1,57.206,71.380008)" stroke-width=".79701" stroke-linecap="butt" stroke-miterlimit="10" stroke-linejoin="miter" fill="none" stroke="#009933" d="M -2.84279 -3.98524 L -32.42738 -45.45833 "/>
<path transform="matrix(1,0,0,-1,57.206,71.380008)" stroke-width=".79701" stroke-linecap="butt" stroke-miterlimit="10" stroke-linejoin="miter" fill="none" stroke="#cc0000" d="M 2.84279 -3.98524 L 32.42738 -45.45833 "/>
<path transform="matrix(1,0,0,-1,57.206,71.380008)" stroke-width=".79701" stroke-linecap="butt" stroke-miterlimit="10" stroke-linejoin="miter" fill="none" stroke="#ff8000" d="M 4.92589 2.66919 L 48.00734 26.01459 "/>
<path transform="matrix(-.87917,.4764,.4764,.87917,62.13189,68.710819)" stroke-width=".6376" stroke-linecap="round" stroke-linejoin="round" fill="none" stroke="#ff8000" d="M -1.55415 2.0722 C -1.42464 1.29512 0 .1295 .38852 0 C 0 -.1295 -1.42464 -1.29512 -1.55415 -2.0722 "/>
<path transform="matrix(1,0,0,-1,57.206,71.380008)" stroke-width=".79701" stroke-linecap="butt" stroke-miterlimit="10" stroke-linejoin="miter" fill="none" stroke="#0099ff" d="M -4.92589 2.66919 L -48.00734 26.01459 "/>
<path transform="matrix(.87917,.4764,.4764,-.87917,52.280115,68.710819)" stroke-width=".6376" stroke-linecap="round" stroke-linejoin="round" fill="none" stroke="#0099ff" d="M -1.55415 2.0722 C -1.42464 1.29512 0 .1295 .38852 0 C 0 -.1295 -1.42464 -1.29512 -1.55415 -2.0722 "/>
<path transform="matrix(1,0,0,-1,57.206,71.380008)" stroke-width=".79701" stroke-linecap="butt" stroke-miterlimit="10" stroke-linejoin="miter" fill="none" stroke="#cc0000" d="M -30.3746 -49.44359 L 30.3746 -49.44359 "/>
<path transform="matrix(1,0,0,-1,57.206,71.380008)" stroke-width=".79701" stroke-linecap="butt" stroke-miterlimit="10" stroke-linejoin="miter" fill="none" stroke="#cc0000" d="M 36.3177 -44.66171 L 51.26382 23.56493 "/>
<path transform="matrix(1,0,0,-1,57.206,71.380008)" stroke-width=".79701" stroke-linecap="butt" stroke-miterlimit="10" stroke-linejoin="miter" fill="none" stroke="#6600cc" d="M 48.3556 31.23068 L 4.52731 63.18411 "/>
<path transform="matrix(-.80803,-.5891,-.5891,.80803,61.73333,8.195896)" stroke-width=".6376" stroke-linecap="round" stroke-linejoin="round" fill="none" stroke="#6600cc" d="M -1.55415 2.0722 C -1.42464 1.29512 0 .1295 .38852 0 C 0 -.1295 -1.42464 -1.29512 -1.55415 -2.0722 "/>
<path transform="matrix(1,0,0,-1,57.206,71.380008)" stroke-width=".79701" stroke-linecap="butt" stroke-miterlimit="10" stroke-linejoin="miter" fill="none" stroke="#6600cc" d="M -4.52731 63.18419 L -48.3556 31.23076 "/>
<path transform="matrix(.80803,-.5891,-.5891,-.80803,52.678674,8.195816)" stroke-width=".6376" stroke-linecap="round" stroke-linejoin="round" fill="none" stroke="#6600cc" d="M -1.55415 2.0722 C -1.42464 1.29512 0 .1295 .38852 0 C 0 -.1295 -1.42464 -1.29512 -1.55415 -2.0722 "/>
<path transform="matrix(1,0,0,-1,57.206,71.380008)" stroke-width=".79701" stroke-linecap="butt" stroke-miterlimit="10" stroke-linejoin="miter" fill="none" stroke="#009933" d="M -51.26382 23.56493 L -36.3177 -44.66171 "/>
</g>
</svg>
